<?xml version="1.0" encoding="UTF-8" standalone="no"?>
<svg
   xmlns:dc="http://purl.org/dc/elements/1.1/"
   xmlns:cc="http://creativecommons.org/ns#"
   xmlns:rdf="http://www.w3.org/1999/02/22-rdf-syntax-ns#"
   xmlns:svg="http://www.w3.org/2000/svg"
   xmlns="http://www.w3.org/2000/svg"
   viewBox="0 0 159.54668 53.333332"
   height="53.333332"
   width="159.54668"
   xml:space="preserve"
   id="svg2"
   version="1.1"><metadata
     id="metadata8"><rdf:RDF><cc:Work
         rdf:about=""><dc:format>image/svg+xml</dc:format><dc:type
           rdf:resource="http://purl.org/dc/dcmitype/StillImage" /></cc:Work></rdf:RDF></metadata><defs
     id="defs6" /><g
     transform="matrix(1.3333333,0,0,-1.3333333,0,53.333333)"
     id="g10"><g
       transform="scale(0.1)"
       id="g12"><path
         id="path14"
         style="fill:#b2b1b1;fill-opacity:1;fill-rule:nonzero;stroke:none"
         d="M 1101.34,400 H 95.3477 c -3.668,0 -7.2891,0 -10.9493,-0.02 -3.0586,-0.019 -6.0976,-0.078 -9.1875,-0.125 -6.6562,-0.167 -13.3945,-0.578 -20.039,-1.769 -6.6953,-1.172 -12.9141,-3.172 -19.0078,-6.27 C 30.1758,388.75 24.707,384.766 19.9766,380.031 15.1914,375.293 11.2266,369.805 8.19531,363.82 5.08203,357.734 3.10938,351.484 1.94531,344.785 0.738281,338.164 0.324219,331.465 0.152344,324.766 0.0585938,321.699 0.0507813,318.621 0,315.555 0,311.934 0,308.301 0,304.641 V 95.3516 C 0,91.6602 0,88.0469 0,84.4141 0.0507813,81.3086 0.0585938,78.3008 0.152344,75.1953 0.324219,68.4961 0.738281,61.7969 1.94531,55.1758 3.10938,48.4766 5.08203,42.1953 8.19531,36.1328 11.2266,30.1758 15.1914,24.6875 19.9766,19.9883 24.707,15.2148 30.1758,11.2383 36.1641,8.20313 42.2578,5.07813 48.4766,3.10547 55.1719,1.89453 61.8164,0.703125 68.5547,0.3125 75.2109,0.128906 78.3008,0.0585938 81.3398,0.0195313 84.3984,0.0195313 88.0586,0 91.6797,0 95.3477,0 H 1101.34 c 3.61,0 7.25,0 10.84,0.0195313 3.06,0 6.18,0.0390625 9.23,0.1093747 6.7,0.183594 13.42,0.574219 20,1.765624 6.7,1.21094 12.92,3.1836 19.08,6.3086 5.97,3.03517 11.44,7.01167 16.18,11.78517 4.75,4.6992 8.72,10.1875 11.8,16.1445 3.07,6.0625 5.07,12.3438 6.19,19.043 1.24,6.6211 1.62,13.3203 1.87,20.0195 0.03,3.1055 0.03,6.1133 0.03,9.2188 0.08,3.6328 0.08,7.2461 0.08,10.9375 V 304.641 c 0,3.66 0,7.293 -0.08,10.914 0,3.066 0,6.144 -0.03,9.211 -0.25,6.699 -0.63,13.398 -1.87,20.019 -1.12,6.699 -3.12,12.949 -6.19,19.035 -3.08,5.985 -7.05,11.473 -11.8,16.211 -4.74,4.735 -10.21,8.719 -16.18,11.785 -6.16,3.098 -12.38,5.098 -19.08,6.27 -6.58,1.191 -13.3,1.602 -20,1.769 -3.05,0.047 -6.17,0.106 -9.23,0.125 -3.59,0.02 -7.23,0.02 -10.84,0.02 v 0" /><path
         id="path16"
         style="fill:#040403;fill-opacity:1;fill-rule:nonzero;stroke:none"
         d="m 84.4492,8.75 c -3.0469,0 -6.0195,0.03906 -9.0429,0.10547 -5.5899,0.16016 -12.2227,0.46875 -18.6915,1.63283 -6.1054,1.1055 -11.5273,2.9023 -16.5664,5.4805 -5.2148,2.6445 -9.9023,6.0625 -13.9726,10.164 -4.1406,4.0625 -7.543,8.7305 -10.2031,13.9649 -2.5938,5.0468 -4.3672,10.4687 -5.4297,16.5742 -1.22269,6.7265 -1.53519,13.5547 -1.66409,18.75 -0.06641,2.1054 -0.14844,9.1289 -0.14844,9.1289 V 315.555 c 0,0 0.08984,6.918 0.14844,8.949 0.1289,5.238 0.4414,12.059 1.65239,18.719 1.0703,6.136 2.8437,11.554 5.4375,16.621 2.6562,5.246 6.0625,9.937 10.1484,13.98 4.1367,4.141 8.8437,7.567 14.0234,10.223 5.1367,2.609 10.5547,4.391 16.5352,5.441 6.7344,1.207 13.5586,1.508 18.7539,1.641 l 9.0234,0.121 H 1112.13 l 9.13,-0.125 c 5.13,-0.129 11.96,-0.43 18.59,-1.629 6.02,-1.055 11.48,-2.844 16.71,-5.476 5.13,-2.629 9.82,-6.055 13.91,-10.157 4.11,-4.062 7.52,-8.781 10.24,-14.043 2.58,-5.113 4.33,-10.527 5.36,-16.488 1.15,-6.309 1.51,-12.789 1.73,-18.875 0.03,-2.832 0.03,-5.871 0.03,-8.902 0.09,-3.75 0.09,-7.317 0.09,-10.914 V 95.3516 c 0,-3.6328 0,-7.1758 -0.09,-10.75 0,-3.2539 0,-6.2344 -0.04,-9.2969 -0.21,-5.8906 -0.57,-12.3672 -1.71,-18.5352 -1.04,-6.1328 -2.79,-11.5547 -5.4,-16.7031 -2.69,-5.1953 -6.12,-9.8906 -10.15,-13.8555 -4.14,-4.1796 -8.83,-7.5898 -13.99,-10.2265 -5.2,-2.6328 -10.49,-4.3828 -16.69,-5.4961 -6.4,-1.16408 -13.03,-1.47267 -18.69,-1.63283 -2.92,-0.06641 -6,-0.10547 -8.98,-0.10547 L 1101.34,8.73047 84.4492,8.75" /><path
         id="path18"
         style="fill:#ffffff;fill-opacity:1;fill-rule:nonzero;stroke:none"
         d="m 247.691,196.992 c -0.253,27.512 22.52,40.895 23.563,41.524 -12.895,18.804 -32.891,21.379 -39.91,21.578 -16.793,1.761 -33.071,-10.051 -41.633,-10.051 -8.719,0 -21.895,9.875 -36.082,9.582 -18.262,-0.285 -35.356,-10.859 -44.727,-27.281 -19.3395,-33.481 -4.918,-82.696 13.61,-109.754 9.269,-13.266 20.101,-28.0705 34.273,-27.5392 13.875,0.5742 19.055,8.8442 35.797,8.8442 16.59,0 21.445,-8.8442 35.91,-8.5122 14.883,0.2422 24.262,13.3162 33.203,26.6952 10.711,15.195 15.016,30.156 15.184,30.926 -0.348,0.117 -28.906,11.012 -29.188,43.988" /><path
         id="path20"
         style="fill:#ffffff;fill-opacity:1;fill-rule:nonzero;stroke:none"
         d="m 220.371,277.891 c 7.457,9.332 12.563,22.019 11.149,34.906 -10.801,-0.477 -24.301,-7.465 -32.075,-16.598 -6.882,-8.039 -13.031,-21.222 -11.441,-33.609 12.129,-0.906 24.586,6.117 32.367,15.301" /><path
         id="path22"
         style="fill:#ffffff;fill-opacity:1;fill-rule:nonzero;stroke:none"
         d="m 380.59,144.094 h 37.519 l -18.496,54.469 h -0.515 z m 42.433,-15.489 H 375.688 L 364.32,95.0391 h -20.047 l 44.832,124.1799 h 20.833 L 454.77,95.0391 h -20.391 l -11.356,33.5659" /><path
         id="path24"
         style="fill:#ffffff;fill-opacity:1;fill-rule:nonzero;stroke:none"
         d="m 532.496,140.305 c 0,18.328 -9.473,30.379 -23.926,30.379 -14.199,0 -23.75,-12.305 -23.75,-30.379 0,-18.242 9.551,-30.461 23.75,-30.461 14.453,0 23.926,11.965 23.926,30.461 z m 19.102,0 c 0,-28.137 -15.059,-46.2112 -37.785,-46.2112 -12.899,0 -23.145,5.7695 -28.485,15.8402 h -0.43 V 65.0898 H 466.313 V 185.574 h 17.988 V 170.52 h 0.344 c 5.164,9.714 16.179,16.003 28.828,16.003 22.976,0 38.125,-18.164 38.125,-46.218" /><path
         id="path26"
         style="fill:#ffffff;fill-opacity:1;fill-rule:nonzero;stroke:none"
         d="m 632.145,140.305 c 0,18.328 -9.473,30.379 -23.926,30.379 -14.199,0 -23.75,-12.305 -23.75,-30.379 0,-18.242 9.551,-30.461 23.75,-30.461 14.453,0 23.926,11.965 23.926,30.461 z m 19.101,0 c 0,-28.137 -15.058,-46.2112 -37.785,-46.2112 -12.898,0 -23.145,5.7695 -28.484,15.8402 h -0.43 V 65.0898 H 565.961 V 185.574 h 17.988 V 170.52 h 0.344 c 5.164,9.714 16.18,16.003 28.828,16.003 22.977,0 38.125,-18.164 38.125,-46.218" /><path
         id="path28"
         style="fill:#ffffff;fill-opacity:1;fill-rule:nonzero;stroke:none"
         d="m 717.105,129.641 c 1.375,-12.317 13.34,-20.403 29.688,-20.403 15.664,0 26.934,8.086 26.934,19.192 0,9.636 -6.797,15.41 -22.891,19.363 l -16.094,3.879 c -22.804,5.508 -33.39,16.172 -33.39,33.473 0,21.425 18.671,36.144 45.187,36.144 26.238,0 44.227,-14.719 44.832,-36.144 h -18.758 c -1.125,12.394 -11.367,19.875 -26.34,19.875 -14.968,0 -25.214,-7.571 -25.214,-18.582 0,-8.782 6.543,-13.95 22.55,-17.903 l 13.68,-3.359 c 25.481,-6.028 36.066,-16.262 36.066,-34.422 0,-23.234 -18.507,-37.7852 -47.941,-37.7852 -27.539,0 -46.133,14.2112 -47.332,36.6722 h 19.023" /><path
         id="path30"
         style="fill:#ffffff;fill-opacity:1;fill-rule:nonzero;stroke:none"
         d="m 833.461,207.004 v -21.43 h 17.219 v -14.715 h -17.219 v -49.914 c 0,-7.754 3.449,-11.367 11.016,-11.367 1.894,0 4.914,0.266 6.113,0.434 V 95.3828 c -2.059,-0.5195 -6.192,-0.8633 -10.32,-0.8633 -18.332,0 -25.481,6.8865 -25.481,24.4455 v 51.894 h -13.164 v 14.715 h 13.164 v 21.43 h 18.672" /><path
         id="path32"
         style="fill:#ffffff;fill-opacity:1;fill-rule:nonzero;stroke:none"
         d="m 927.602,140.305 c 0,19.539 -8.954,31.074 -24.012,31.074 -15.059,0 -24.004,-11.621 -24.004,-31.074 0,-19.621 8.945,-31.067 24.004,-31.067 15.058,0 24.012,11.446 24.012,31.067 z m -66.954,0 c 0,28.484 16.778,46.383 42.942,46.383 26.25,0 42.949,-17.899 42.949,-46.383 0,-28.567 -16.613,-46.3909 -42.949,-46.3909 -26.328,0 -42.942,17.8239 -42.942,46.3909" /><path
         id="path34"
         style="fill:#ffffff;fill-opacity:1;fill-rule:nonzero;stroke:none"
         d="m 961.859,185.574 h 17.727 v -15.41 h 0.43 c 2.839,10.246 11.101,16.359 21.774,16.359 2.67,0 4.9,-0.351 6.37,-0.695 v -17.383 c -1.47,0.61 -4.74,1.125 -8.351,1.125 -11.961,0 -19.364,-8.093 -19.364,-20.832 V 95.0391 h -18.586 v 90.5349" /><path
         id="path36"
         style="fill:#ffffff;fill-opacity:1;fill-rule:nonzero;stroke:none"
         d="m 1031.02,148.652 h 45.26 c -0.43,13.86 -9.29,22.981 -22.2,22.981 -12.82,0 -22.11,-9.297 -23.06,-22.981 z m 62.82,-27.019 c -2.5,-16.438 -18.5,-27.7189 -38.98,-27.7189 -26.34,0 -42.69,17.6489 -42.69,45.9569 0,28.399 16.44,46.817 41.91,46.817 25.05,0 40.8,-17.208 40.8,-44.657 v -6.367 h -63.95 v -1.125 c 0,-15.484 9.73,-25.644 24.36,-25.644 10.32,0 18.42,4.906 20.91,12.738 h 17.64" /><path
         id="path38"
         style="fill:#ffffff;fill-opacity:1;fill-rule:nonzero;stroke:none"
         d="m 365.977,261.461 h 11.25 c 12.48,0 19.675,7.773 19.675,21.461 0,13.48 -7.312,21.336 -19.675,21.336 h -11.25 z m 12.285,51.23 c 17.695,0 28.078,-10.875 28.078,-29.648 0,-19.063 -10.305,-30.02 -28.078,-30.02 h -21.551 v 59.668 h 21.551" /><path
         id="path40"
         style="fill:#ffffff;fill-opacity:1;fill-rule:nonzero;stroke:none"
         d="m 450.137,275.559 c 0,9.757 -4.383,15.464 -12.078,15.464 -7.727,0 -12.071,-5.707 -12.071,-15.464 0,-9.84 4.344,-15.504 12.071,-15.504 7.695,0 12.078,5.703 12.078,15.504 z m -33.328,0 c 0,14.515 8.101,23.363 21.25,23.363 13.113,0 21.218,-8.848 21.218,-23.363 0,-14.598 -8.066,-23.407 -21.218,-23.407 -13.188,0 -21.25,8.809 -21.25,23.407" /><path
         id="path42"
         style="fill:#ffffff;fill-opacity:1;fill-rule:nonzero;stroke:none"
         d="m 515.734,253.023 h -9.218 l -9.309,33.165 h -0.703 l -9.266,-33.165 h -9.133 l -12.41,45.028 h 9.012 l 8.066,-34.36 h 0.665 l 9.257,34.36 h 8.528 l 9.257,-34.36 h 0.704 l 8.027,34.36 h 8.887 l -12.364,-45.028" /><path
         id="path44"
         style="fill:#ffffff;fill-opacity:1;fill-rule:nonzero;stroke:none"
         d="m 538.535,298.051 h 8.555 v -7.153 h 0.664 c 2.187,5.004 6.66,8.024 13.437,8.024 10.047,0 15.586,-6.035 15.586,-16.75 v -29.149 h -8.886 v 26.918 c 0,7.239 -3.145,10.836 -9.715,10.836 -6.574,0 -10.754,-4.386 -10.754,-11.414 v -26.34 h -8.887 v 45.028" /><path
         id="path46"
         style="fill:#ffffff;fill-opacity:1;fill-rule:nonzero;stroke:none"
         d="m 590.938,315.629 h 8.886 v -62.606 h -8.886 v 62.606" /><path
         id="path48"
         style="fill:#ffffff;fill-opacity:1;fill-rule:nonzero;stroke:none"
         d="m 645.508,275.559 c 0,9.757 -4.387,15.464 -12.078,15.464 -7.727,0 -12.071,-5.707 -12.071,-15.464 0,-9.84 4.344,-15.504 12.071,-15.504 7.691,0 12.078,5.703 12.078,15.504 z m -33.328,0 c 0,14.515 8.101,23.363 21.25,23.363 13.113,0 21.222,-8.848 21.222,-23.363 0,-14.598 -8.07,-23.407 -21.222,-23.407 -13.188,0 -21.25,8.809 -21.25,23.407" /><path
         id="path50"
         style="fill:#ffffff;fill-opacity:1;fill-rule:nonzero;stroke:none"
         d="m 692.953,269.605 v 3.762 l -10.996,-0.699 c -6.199,-0.418 -9.012,-2.527 -9.012,-6.496 0,-4.055 3.516,-6.41 8.348,-6.41 6.699,0 11.66,4.261 11.66,9.843 z m -28.945,-3.847 c 0,8.105 6.035,12.777 16.75,13.441 l 12.195,0.703 v 3.887 c 0,4.758 -3.144,7.441 -9.219,7.441 -4.961,0 -8.398,-1.82 -9.382,-5.003 h -8.606 c 0.91,7.734 8.184,12.695 18.399,12.695 11.289,0 17.656,-5.621 17.656,-15.133 v -30.766 h -8.555 v 6.329 h -0.703 c -2.684,-4.508 -7.605,-7.071 -13.523,-7.071 -8.684,0 -15.012,5.246 -15.012,13.477" /><path
         id="path52"
         style="fill:#ffffff;fill-opacity:1;fill-rule:nonzero;stroke:none"
         d="m 722.66,275.559 c 0,-9.551 4.504,-15.301 12.031,-15.301 7.493,0 12.122,5.832 12.122,15.262 0,9.382 -4.68,15.296 -12.122,15.296 -7.48,0 -12.031,-5.789 -12.031,-15.257 z m -9.18,0 c 0,14.226 7.317,23.242 18.692,23.242 6.164,0 11.367,-2.938 13.808,-7.903 h 0.665 v 24.731 h 8.886 v -62.606 h -8.515 v 7.114 h -0.703 c -2.684,-4.922 -7.938,-7.856 -14.141,-7.856 -11.453,0 -18.692,9.012 -18.692,23.278" /><path
         id="path54"
         style="fill:#ffffff;fill-opacity:1;fill-rule:nonzero;stroke:none"
         d="m 825.629,275.559 c 0,9.757 -4.383,15.464 -12.078,15.464 -7.727,0 -12.071,-5.707 -12.071,-15.464 0,-9.84 4.344,-15.504 12.071,-15.504 7.695,0 12.078,5.703 12.078,15.504 z m -33.328,0 c 0,14.515 8.105,23.363 21.25,23.363 13.113,0 21.219,-8.848 21.219,-23.363 0,-14.598 -8.067,-23.407 -21.219,-23.407 -13.184,0 -21.25,8.809 -21.25,23.407" /><path
         id="path56"
         style="fill:#ffffff;fill-opacity:1;fill-rule:nonzero;stroke:none"
         d="m 846.695,298.051 h 8.555 v -7.153 h 0.664 c 2.188,5.004 6.66,8.024 13.438,8.024 10.046,0 15.586,-6.035 15.586,-16.75 v -29.149 h -8.887 v 26.918 c 0,7.239 -3.145,10.836 -9.719,10.836 -6.57,0 -10.75,-4.386 -10.75,-11.414 v -26.34 h -8.887 v 45.028" /><path
         id="path58"
         style="fill:#ffffff;fill-opacity:1;fill-rule:nonzero;stroke:none"
         d="m 935.152,309.262 v -11.414 h 9.754 v -7.489 h -9.754 v -23.152 c 0,-4.719 1.942,-6.781 6.368,-6.781 1.367,0 2.148,0.082 3.386,0.203 v -7.402 c -1.445,-0.243 -3.105,-0.454 -4.832,-0.454 -9.883,0 -13.82,3.477 -13.82,12.161 v 25.425 h -7.149 v 7.489 h 7.149 v 11.414 h 8.898" /><path
         id="path60"
         style="fill:#ffffff;fill-opacity:1;fill-rule:nonzero;stroke:none"
         d="m 957.047,315.629 h 8.808 v -24.813 h 0.704 c 2.187,5.047 6.941,8.067 13.73,8.067 9.59,0 15.508,-6.078 15.508,-16.789 v -29.071 h -8.899 v 26.879 c 0,7.192 -3.347,10.836 -9.628,10.836 -7.286,0 -11.336,-4.593 -11.336,-11.418 v -26.297 h -8.887 v 62.606" /><path
         id="path62"
         style="fill:#ffffff;fill-opacity:1;fill-rule:nonzero;stroke:none"
         d="m 1016.35,279.691 h 22.75 c -0.21,7.071 -4.51,11.664 -11.09,11.664 -6.57,0 -11.16,-4.632 -11.66,-11.664 z m 31.26,-14.511 c -2.02,-8.067 -9.22,-13.028 -19.51,-13.028 -12.9,0 -20.8,8.848 -20.8,23.243 0,14.39 8.07,23.527 20.76,23.527 12.53,0 20.09,-8.563 20.09,-22.699 v -3.102 h -31.8 v -0.5 c 0.3,-7.894 4.89,-12.898 11.99,-12.898 5.39,0 9.07,1.941 10.72,5.457 h 8.55" /></g></g></svg>