<?xml version="1.0" encoding="UTF-8" standalone="no"?>
<svg
   xmlns:dc="http://purl.org/dc/elements/1.1/"
   xmlns:cc="http://creativecommons.org/ns#"
   xmlns:rdf="http://www.w3.org/1999/02/22-rdf-syntax-ns#"
   xmlns:svg="http://www.w3.org/2000/svg"
   xmlns="http://www.w3.org/2000/svg"
   viewBox="0 0 206.66667 80"
   height="80"
   width="206.66667"
   xml:space="preserve"
   id="svg2"
   version="1.1"><metadata
     id="metadata8"><rdf:RDF><cc:Work
         rdf:about=""><dc:format>image/svg+xml</dc:format><dc:type
           rdf:resource="http://purl.org/dc/dcmitype/StillImage" /></cc:Work></rdf:RDF></metadata><defs
     id="defs6"><clipPath
       id="clipPath56"
       clipPathUnits="userSpaceOnUse"><path
         id="path54"
         d="m 205.098,176.105 -0.743,0.711 c -2.91,3.079 -4.628,7.86 -4.628,14.051 v -1.457 0 221.16 c 0,0.02 0,0.035 0,0.051 0,-0.019 0,-0.035 0,-0.055 v -1.461 c 0,6.704 2.003,11.754 5.359,14.782 L 328.984,299.992 205.098,176.105 m -5.371,234.528 c 0,0.551 0.015,1.086 0.043,1.613 -0.028,-0.523 -0.043,-1.062 -0.043,-1.613 m 0.043,1.637 c 0,0.007 0,0.015 0.003,0.023 -0.003,-0.008 -0.003,-0.016 -0.003,-0.023 m 0.003,0.07 c 0,0.004 0,0.008 0,0.012 0,-0.004 0,-0.008 0,-0.012" /></clipPath><linearGradient
       id="linearGradient70"
       spreadMethod="pad"
       gradientTransform="matrix(-167.825,-167.825,167.825,-167.825,317.998,412.903)"
       gradientUnits="userSpaceOnUse"
       y2="0"
       x2="1"
       y1="0"
       x1="0"><stop
         id="stop58"
         offset="0"
         style="stop-opacity:1;stop-color:#00a0ff" /><stop
         id="stop60"
         offset="0.00657445"
         style="stop-opacity:1;stop-color:#00a1ff" /><stop
         id="stop62"
         offset="0.2601"
         style="stop-opacity:1;stop-color:#00beff" /><stop
         id="stop64"
         offset="0.5122"
         style="stop-opacity:1;stop-color:#00d2ff" /><stop
         id="stop66"
         offset="0.7604"
         style="stop-opacity:1;stop-color:#00dfff" /><stop
         id="stop68"
         offset="1"
         style="stop-opacity:1;stop-color:#00e3ff" /></linearGradient><clipPath
       id="clipPath80"
       clipPathUnits="userSpaceOnUse"><path
         id="path78"
         d="m 370.277,257.215 v 0 l 0.942,0.535 48.929,27.801 c 4.665,2.652 7.774,5.867 9.325,9.269 -1.547,-3.402 -4.657,-6.621 -9.325,-9.273 l -48.929,-27.801 -0.942,-0.531 m 0.012,1.465 -41.305,41.312 41.301,41.305 49.863,-28.328 c 6.332,-3.598 9.887,-8.235 10.481,-12.973 0,-0.004 0,-0.012 0,-0.019 -0.594,-4.727 -4.149,-9.368 -10.481,-12.965 L 370.289,258.68" /></clipPath><linearGradient
       id="linearGradient90"
       spreadMethod="pad"
       gradientTransform="matrix(-241.97,0,0,-241.97,438.344,299.986)"
       gradientUnits="userSpaceOnUse"
       y2="0"
       x2="1"
       y1="0"
       x1="0"><stop
         id="stop82"
         offset="0"
         style="stop-opacity:1;stop-color:#ffe000" /><stop
         id="stop84"
         offset="0.4087"
         style="stop-opacity:1;stop-color:#ffbd00" /><stop
         id="stop86"
         offset="0.7754"
         style="stop-opacity:1;stop-color:#ffa500" /><stop
         id="stop88"
         offset="1"
         style="stop-opacity:1;stop-color:#ff9c00" /></linearGradient><clipPath
       id="clipPath100"
       clipPathUnits="userSpaceOnUse"><path
         id="path98"
         d="m 213.93,171.387 c -3.461,0 -6.481,1.125 -8.836,3.25 l 0.004,0.004 c 2.355,-2.125 5.379,-3.254 8.84,-3.254 0.3,0 0.605,0.008 0.914,0.023 -0.313,-0.015 -0.622,-0.023 -0.922,-0.023 m 0.004,1.465 c -3.461,-0.004 -6.481,1.125 -8.836,3.25 v 0 0.003 l 123.886,123.887 41.305,-41.312 v 0 L 225.137,176.207 c -4.016,-2.277 -7.821,-3.355 -11.203,-3.355 m -8.871,1.812 c -0.219,0.199 -0.434,0.41 -0.645,0.629 l 0.645,-0.629" /></clipPath><linearGradient
       id="linearGradient106"
       spreadMethod="pad"
       gradientTransform="matrix(-227.583,-227.583,227.583,-227.583,348.27,277.039)"
       gradientUnits="userSpaceOnUse"
       y2="0"
       x2="1"
       y1="0"
       x1="0"><stop
         id="stop102"
         offset="0"
         style="stop-opacity:1;stop-color:#ff3a44" /><stop
         id="stop104"
         offset="1"
         style="stop-opacity:1;stop-color:#c31162" /></linearGradient><clipPath
       id="clipPath116"
       clipPathUnits="userSpaceOnUse"><path
         id="path114"
         d="m 328.984,299.992 v 0 L 205.086,423.887 c 2.355,2.121 5.371,3.246 8.828,3.246 3.391,0 7.199,-1.082 11.223,-3.363 l 145.148,-82.473 -41.301,-41.305 m 42.235,42.238 -146.082,83 c -4.024,2.282 -7.832,3.364 -11.223,3.364 -0.016,0 -0.027,0 -0.043,0 0.02,0 0.035,0 0.059,0 3.383,0 7.187,-1.078 11.207,-3.36 L 371.219,342.23 M 213.84,428.594 v 0 0" /></clipPath><linearGradient
       id="linearGradient128"
       spreadMethod="pad"
       gradientTransform="matrix(101.625,-101.625,101.625,101.625,172.973,498.238)"
       gradientUnits="userSpaceOnUse"
       y2="0"
       x2="1"
       y1="0"
       x1="0"><stop
         id="stop118"
         offset="0"
         style="stop-opacity:1;stop-color:#32a071" /><stop
         id="stop120"
         offset="0.0685"
         style="stop-opacity:1;stop-color:#2da771" /><stop
         id="stop122"
         offset="0.4762"
         style="stop-opacity:1;stop-color:#15cf74" /><stop
         id="stop124"
         offset="0.8009"
         style="stop-opacity:1;stop-color:#06e775" /><stop
         id="stop126"
         offset="1"
         style="stop-opacity:1;stop-color:#00f076" /></linearGradient><clipPath
       id="clipPath140"
       clipPathUnits="userSpaceOnUse"><path
         id="path138"
         d="m 370.277,257.215 v 0 l 0.942,0.535 -0.942,-0.535" /></clipPath><linearGradient
       id="linearGradient150"
       spreadMethod="pad"
       gradientTransform="matrix(-241.97,0,0,-241.97,438.344,299.986)"
       gradientUnits="userSpaceOnUse"
       y2="0"
       x2="1"
       y1="0"
       x1="0"><stop
         id="stop142"
         offset="0"
         style="stop-opacity:1;stop-color:#ccb300" /><stop
         id="stop144"
         offset="0.4087"
         style="stop-opacity:1;stop-color:#cc9700" /><stop
         id="stop146"
         offset="0.7754"
         style="stop-opacity:1;stop-color:#cc8400" /><stop
         id="stop148"
         offset="1"
         style="stop-opacity:1;stop-color:#cc7d00" /></linearGradient><clipPath
       id="clipPath160"
       clipPathUnits="userSpaceOnUse"><path
         id="path158"
         d="m 213.938,171.387 c -3.461,0 -6.485,1.129 -8.84,3.254 l -0.004,-0.004 c -0.008,0.008 -0.02,0.019 -0.031,0.027 l -0.645,0.629 c -0.02,0.02 -0.039,0.043 -0.063,0.066 l 0.743,0.743 c 2.355,-2.125 5.375,-3.254 8.836,-3.25 3.382,0 7.187,1.078 11.203,3.355 l 145.152,82.473 0.93,-0.93 -0.942,-0.535 -145.14,-82.469 c -3.66,-2.074 -7.141,-3.156 -10.285,-3.336 -0.309,-0.015 -0.614,-0.023 -0.914,-0.023" /></clipPath><linearGradient
       id="linearGradient166"
       spreadMethod="pad"
       gradientTransform="matrix(-227.583,-227.583,227.583,-227.583,348.27,277.039)"
       gradientUnits="userSpaceOnUse"
       y2="0"
       x2="1"
       y1="0"
       x1="0"><stop
         id="stop162"
         offset="0"
         style="stop-opacity:1;stop-color:#cc2e36" /><stop
         id="stop164"
         offset="1"
         style="stop-opacity:1;stop-color:#9c0e4e" /></linearGradient><clipPath
       id="clipPath178"
       clipPathUnits="userSpaceOnUse"><path
         id="path176"
         d="m 204.355,175.359 v 0 c -2.91,3.079 -4.628,7.856 -4.628,14.051 v 1.457 c 0,-6.191 1.718,-10.972 4.628,-14.051 l 0.743,-0.711 -0.743,-0.746" /></clipPath><linearGradient
       id="linearGradient192"
       spreadMethod="pad"
       gradientTransform="matrix(-167.825,-167.825,167.825,-167.825,317.998,412.903)"
       gradientUnits="userSpaceOnUse"
       y2="0"
       x2="1"
       y1="0"
       x1="0"><stop
         id="stop180"
         offset="0"
         style="stop-opacity:1;stop-color:#008de0" /><stop
         id="stop182"
         offset="0.00657445"
         style="stop-opacity:1;stop-color:#008de0" /><stop
         id="stop184"
         offset="0.2601"
         style="stop-opacity:1;stop-color:#00a7e0" /><stop
         id="stop186"
         offset="0.5122"
         style="stop-opacity:1;stop-color:#00b8e0" /><stop
         id="stop188"
         offset="0.7604"
         style="stop-opacity:1;stop-color:#00c4e0" /><stop
         id="stop190"
         offset="1"
         style="stop-opacity:1;stop-color:#00c7e0" /></linearGradient><clipPath
       id="clipPath202"
       clipPathUnits="userSpaceOnUse"><path
         id="path200"
         d="m 204.355,175.359 v 0 0 l 0.743,0.746 v -0.003 l -0.743,-0.743" /></clipPath><linearGradient
       id="linearGradient208"
       spreadMethod="pad"
       gradientTransform="matrix(-227.583,-227.583,227.583,-227.583,348.27,277.039)"
       gradientUnits="userSpaceOnUse"
       y2="0"
       x2="1"
       y1="0"
       x1="0"><stop
         id="stop204"
         offset="0"
         style="stop-opacity:1;stop-color:#e0333c" /><stop
         id="stop206"
         offset="1"
         style="stop-opacity:1;stop-color:#ab0f56" /></linearGradient><clipPath
       id="clipPath220"
       clipPathUnits="userSpaceOnUse"><path
         id="path218"
         d="m 371.219,257.75 v 0 l -0.93,0.93 49.859,28.332 c 6.332,3.597 9.887,8.238 10.481,12.965 0,-1.735 -0.387,-3.469 -1.156,-5.157 -1.551,-3.402 -4.66,-6.617 -9.325,-9.269 L 371.219,257.75" /></clipPath><linearGradient
       id="linearGradient230"
       spreadMethod="pad"
       gradientTransform="matrix(-241.97,0,0,-241.97,438.344,299.986)"
       gradientUnits="userSpaceOnUse"
       y2="0"
       x2="1"
       y1="0"
       x1="0"><stop
         id="stop222"
         offset="0"
         style="stop-opacity:1;stop-color:#e0c500" /><stop
         id="stop224"
         offset="0.4087"
         style="stop-opacity:1;stop-color:#e0a600" /><stop
         id="stop226"
         offset="0.7754"
         style="stop-opacity:1;stop-color:#e09100" /><stop
         id="stop228"
         offset="1"
         style="stop-opacity:1;stop-color:#e08900" /></linearGradient><clipPath
       id="clipPath242"
       clipPathUnits="userSpaceOnUse"><path
         id="path240"
         d="m 430.629,299.996 c -0.594,4.738 -4.149,9.375 -10.481,12.973 l -49.863,28.328 0.93,0.93 h 0.004 l 48.929,-27.801 c 6.981,-3.969 10.477,-9.199 10.481,-14.43" /></clipPath><linearGradient
       id="linearGradient252"
       spreadMethod="pad"
       gradientTransform="matrix(-241.97,0,0,-241.97,438.344,299.986)"
       gradientUnits="userSpaceOnUse"
       y2="0"
       x2="1"
       y1="0"
       x1="0"><stop
         id="stop244"
         offset="0"
         style="stop-opacity:1;stop-color:#ffe840" /><stop
         id="stop246"
         offset="0.4087"
         style="stop-opacity:1;stop-color:#ffce40" /><stop
         id="stop248"
         offset="0.7754"
         style="stop-opacity:1;stop-color:#ffbc40" /><stop
         id="stop250"
         offset="1"
         style="stop-opacity:1;stop-color:#ffb540" /></linearGradient><clipPath
       id="clipPath264"
       clipPathUnits="userSpaceOnUse"><path
         id="path262"
         d="m 199.727,409.105 v 1.461 c 0,0.02 0,0.036 0,0.055 0,0.004 0,0.008 0,0.012 0,0.551 0.015,1.09 0.043,1.613 0,0.008 0,0.016 0,0.024 0,0.007 0,0.015 0.003,0.023 0,0.016 0,0.031 0,0.047 0,0.004 0,0.008 0,0.012 0.301,5.332 1.957,9.492 4.582,12.269 v 0 0 l 0.731,-0.734 c -3.356,-3.028 -5.359,-8.078 -5.359,-14.782 m 5.339,16.215 0.028,0.028 c -0.008,-0.012 -0.02,-0.02 -0.028,-0.028" /></clipPath><linearGradient
       id="linearGradient278"
       spreadMethod="pad"
       gradientTransform="matrix(-167.825,-167.825,167.825,-167.825,317.998,412.903)"
       gradientUnits="userSpaceOnUse"
       y2="0"
       x2="1"
       y1="0"
       x1="0"><stop
         id="stop266"
         offset="0"
         style="stop-opacity:1;stop-color:#40b8ff" /><stop
         id="stop268"
         offset="0.00657445"
         style="stop-opacity:1;stop-color:#40b9ff" /><stop
         id="stop270"
         offset="0.2601"
         style="stop-opacity:1;stop-color:#40ceff" /><stop
         id="stop272"
         offset="0.5122"
         style="stop-opacity:1;stop-color:#40ddff" /><stop
         id="stop274"
         offset="0.7604"
         style="stop-opacity:1;stop-color:#40e7ff" /><stop
         id="stop276"
         offset="1"
         style="stop-opacity:1;stop-color:#40eaff" /></linearGradient><clipPath
       id="clipPath290"
       clipPathUnits="userSpaceOnUse"><path
         id="path288"
         d="M 370.285,341.297 225.137,423.77 c -4.024,2.281 -7.832,3.363 -11.223,3.363 -3.457,0 -6.473,-1.125 -8.828,-3.246 l -0.731,0.734 v 0 c 0.231,0.242 0.465,0.477 0.711,0.699 0.008,0.008 0.02,0.016 0.028,0.024 2.336,2.105 5.32,3.23 8.746,3.25 v 0 c 0.008,0 0.019,0 0.031,0 0.016,0 0.027,0 0.043,0 3.391,0 7.199,-1.082 11.223,-3.364 l 146.082,-83 -0.004,-0.003 -0.93,-0.93" /></clipPath><linearGradient
       id="linearGradient302"
       spreadMethod="pad"
       gradientTransform="matrix(101.625,-101.625,101.625,101.625,172.973,498.238)"
       gradientUnits="userSpaceOnUse"
       y2="0"
       x2="1"
       y1="0"
       x1="0"><stop
         id="stop292"
         offset="0"
         style="stop-opacity:1;stop-color:#65b895" /><stop
         id="stop294"
         offset="0.0685"
         style="stop-opacity:1;stop-color:#62bd95" /><stop
         id="stop296"
         offset="0.4762"
         style="stop-opacity:1;stop-color:#50db97" /><stop
         id="stop298"
         offset="0.8009"
         style="stop-opacity:1;stop-color:#44ed98" /><stop
         id="stop300"
         offset="1"
         style="stop-opacity:1;stop-color:#40f498" /></linearGradient></defs><g
     transform="matrix(1.3333333,0,0,-1.3333333,0,80)"
     id="g10"><g
       transform="scale(0.1)"
       id="g12"><path
         id="path14"
         style="fill:#ffffff;fill-opacity:1;fill-rule:nonzero;stroke:none"
         d="M 1550,0 H 0 V 600 H 1550 V 0 M 100,150 v 0 c 0,-27.5 22.5,-50 50,-50 h 1250 c 27.5,0 50,22.5 50,50 v 300 0 0 c 0,27.5 -22.5,50 -50,50 H 150 c -27.5,0 -50,-22.5 -50,-50 v -300 0" /><path
         id="path16"
         style="fill:#000000;fill-opacity:1;fill-rule:nonzero;stroke:none"
         d="M 1400,100 H 150 c -27.5,0 -50,22.5 -50,50 v 300 c 0,27.5 22.5,50 50,50 h 1250 c 27.5,0 50,-22.5 50,-50 V 150 c 0,-27.5 -22.5,-50 -50,-50" /><path
         id="path18"
         style="fill:#a6a6a6;fill-opacity:1;fill-rule:nonzero;stroke:none"
         d="M 1400,500 H 150 c -27.5,0 -50,-22.5 -50,-50 V 150 c 0,-27.5 22.5,-50 50,-50 h 1250 c 27.5,0 50,22.5 50,50 v 300 c 0,27.5 -22.5,50 -50,50 m 0,-8 c 23.16,0 42,-18.844 42,-42 V 150 c 0,-23.16 -18.84,-42.004 -42,-42.004 H 150 c -23.156,0 -42,18.844 -42,42.004 v 300 c 0,23.156 18.844,42 42,42 h 1250" /><path
         id="path20"
         style="fill:#ffffff;fill-opacity:1;fill-rule:nonzero;stroke:none"
         d="m 574.184,397.566 c 0,-8.378 -2.481,-15.05 -7.45,-20.027 -5.644,-5.918 -13,-8.879 -22.043,-8.879 -8.66,0 -16.023,3 -22.078,9.008 -6.066,6.004 -9.093,13.449 -9.093,22.332 0,8.887 3.027,16.328 9.093,22.336 6.055,6.004 13.418,9.008 22.078,9.008 4.297,0 8.411,-0.84 12.317,-2.516 3.906,-1.68 7.039,-3.91 9.383,-6.703 l -5.274,-5.277 c -3.972,4.746 -9.441,7.117 -16.426,7.117 -6.316,0 -11.777,-2.219 -16.386,-6.66 -4.61,-4.446 -6.914,-10.211 -6.914,-17.305 0,-7.094 2.304,-12.859 6.914,-17.305 4.609,-4.441 10.07,-6.66 16.386,-6.66 6.7,0 12.286,2.231 16.758,6.699 2.903,2.911 4.582,6.957 5.031,12.153 h -21.789 v 7.207 h 29.075 c 0.281,-1.567 0.418,-3.071 0.418,-4.528" /><path
         id="path22"
         style="fill:#ffffff;fill-opacity:1;fill-rule:nonzero;stroke:none"
         d="m 574.184,397.566 h -1 c -0.008,-8.187 -2.399,-14.546 -7.157,-19.32 l -0.011,-0.008 -0.004,-0.008 c -5.465,-5.714 -12.489,-8.558 -21.321,-8.57 -8.429,0.012 -15.484,2.887 -21.375,8.715 -5.878,5.84 -8.785,12.969 -8.796,21.625 0.011,8.66 2.918,15.785 8.796,21.621 5.891,5.832 12.946,8.711 21.375,8.723 4.168,0 8.137,-0.813 11.922,-2.434 3.789,-1.633 6.782,-3.773 9.012,-6.43 l 0.766,0.645 -0.707,0.707 -5.274,-5.281 0.707,-0.703 0.77,0.64 c -4.157,4.981 -9.992,7.492 -17.196,7.477 -6.55,0.008 -12.312,-2.332 -17.078,-6.942 -4.812,-4.625 -7.23,-10.714 -7.222,-18.023 -0.008,-7.309 2.41,-13.398 7.222,-18.023 4.766,-4.61 10.528,-6.95 17.078,-6.942 6.922,-0.012 12.821,2.336 17.465,6.992 v 0 c 3.102,3.11 4.86,7.418 5.321,12.774 l 0.093,1.086 h -21.879 v 5.207 h 28.075 v 1 l -0.985,-0.176 c 0.274,-1.516 0.403,-2.957 0.403,-4.352 h 1 1 c 0,1.52 -0.141,3.082 -0.434,4.707 l -0.148,0.821 h -30.911 v -8.207 -1 h 22.789 v 1 l -0.996,0.086 c -0.441,-5.032 -2.043,-8.821 -4.742,-11.532 v 0 c -4.297,-4.281 -9.57,-6.394 -16.051,-6.406 -6.082,0.008 -11.242,2.102 -15.691,6.379 -4.406,4.262 -6.598,9.703 -6.609,16.586 0.011,6.883 2.203,12.324 6.609,16.586 4.449,4.277 9.609,6.371 15.691,6.379 6.762,-0.016 11.868,-2.25 15.661,-6.762 l 0.703,-0.836 6.043,6.051 0.648,0.648 -0.59,0.7 c -2.457,2.929 -5.73,5.254 -9.754,6.98 -4.031,1.731 -8.285,2.598 -12.711,2.598 -8.89,0.008 -16.562,-3.117 -22.785,-9.301 -6.246,-6.172 -9.394,-13.93 -9.386,-23.043 -0.008,-9.109 3.14,-16.871 9.39,-23.047 6.219,-6.18 13.891,-9.301 22.781,-9.293 9.258,-0.008 16.938,3.067 22.766,9.188 l -0.723,0.691 0.707,-0.707 c 5.18,5.176 7.75,12.168 7.743,20.734 h -1" /><path
         id="path24"
         style="fill:#ffffff;fill-opacity:1;fill-rule:nonzero;stroke:none"
         d="m 620.277,422.629 h -27.324 v -19.024 h 24.641 v -7.21 h -24.641 v -19.024 h 27.324 V 370 H 585.25 v 60 h 35.027 v -7.371" /><path
         id="path26"
         style="fill:#ffffff;fill-opacity:1;fill-rule:nonzero;stroke:none"
         d="m 620.277,422.629 v 1 h -28.324 v -21.024 h 24.641 v -5.207 l -24.641,-0.003 v -21.024 h 27.324 V 371 H 586.25 v 58 h 33.027 v -6.371 h 1 v 1 -1 h 1 V 430 431 H 584.25 v -62 h 37.027 v 8.371 1 h -27.324 v 17.024 h 24.641 v 8.21 1 h -24.641 v 17.024 h 27.324 v 1 h -1" /><path
         id="path28"
         style="fill:#ffffff;fill-opacity:1;fill-rule:nonzero;stroke:none"
         d="m 652.789,370 h -7.715 v 52.629 H 628.316 V 430 h 41.231 v -7.371 H 652.789 V 370" /><path
         id="path30"
         style="fill:#ffffff;fill-opacity:1;fill-rule:nonzero;stroke:none"
         d="m 652.789,370 v 1 h -6.715 v 52.629 H 629.316 V 429 h 39.231 v -5.371 H 651.789 V 370 h 1 v 1 -1 h 1 v 51.629 h 16.758 v 8.371 1 h -43.231 v -8.371 -1 h 16.758 V 369 h 8.715 1 v 1 h -1" /><path
         id="path32"
         style="fill:#ffffff;fill-opacity:1;fill-rule:nonzero;stroke:none"
         d="m 699.379,370 v 60 h 7.707 v -60 h -7.707" /><path
         id="path34"
         style="fill:#ffffff;fill-opacity:1;fill-rule:nonzero;stroke:none"
         d="m 699.379,370 h 1 v 59 h 5.707 v -58 h -6.707 v -1 h 1 -1 v -1 h 7.707 1 v 62 h -8.707 -1 v -62 h 1 v 1" /><path
         id="path36"
         style="fill:#ffffff;fill-opacity:1;fill-rule:nonzero;stroke:none"
         d="m 741.285,370 h -7.715 v 52.629 H 716.813 V 430 h 41.23 v -7.371 H 741.285 V 370" /><path
         id="path38"
         style="fill:#ffffff;fill-opacity:1;fill-rule:nonzero;stroke:none"
         d="m 741.285,370 v 1 h -6.715 v 52.629 H 717.813 V 429 h 39.23 v -5.371 H 740.285 V 370 h 1 v 1 -1 h 1 v 51.629 h 16.758 v 8.371 1 h -43.23 v -8.371 -1 H 732.57 V 369 h 8.715 1 v 1 h -1" /><path
         id="path40"
         style="fill:#ffffff;fill-opacity:1;fill-rule:nonzero;stroke:none"
         d="m 797.793,382.777 c 4.441,-4.496 9.875,-6.742 16.301,-6.742 6.426,0 11.863,2.246 16.297,6.742 4.445,4.496 6.672,10.243 6.672,17.223 0,6.98 -2.227,12.727 -6.672,17.223 -4.434,4.496 -9.871,6.742 -16.297,6.742 -6.426,0 -11.86,-2.246 -16.301,-6.742 -4.434,-4.496 -6.66,-10.243 -6.66,-17.223 0,-6.98 2.226,-12.727 6.66,-17.223 z m 38.301,-5.023 c -5.899,-6.066 -13.235,-9.094 -22,-9.094 -8.774,0 -16.106,3.028 -21.992,9.094 -5.903,6.059 -8.84,13.476 -8.84,22.246 0,8.77 2.937,16.188 8.84,22.246 5.886,6.067 13.218,9.098 21.992,9.098 8.719,0 16.035,-3.047 21.961,-9.137 5.918,-6.09 8.879,-13.492 8.879,-22.207 0,-8.77 -2.954,-16.187 -8.84,-22.246" /><path
         id="path42"
         style="fill:#ffffff;fill-opacity:1;fill-rule:nonzero;stroke:none"
         d="m 797.793,382.777 -0.711,-0.703 c 4.606,-4.676 10.352,-7.051 17.012,-7.039 6.656,-0.012 12.41,2.363 17.008,7.039 4.636,4.68 6.968,10.735 6.961,17.926 0.007,7.191 -2.325,13.246 -6.961,17.926 v 0 c -4.598,4.676 -10.352,7.051 -17.008,7.039 -6.66,0.012 -12.406,-2.363 -17.012,-7.039 v 0 c -4.625,-4.68 -6.961,-10.735 -6.949,-17.926 -0.012,-7.191 2.324,-13.246 6.949,-17.926 l 0.711,0.703 0.711,0.703 c -4.242,4.317 -6.363,9.747 -6.371,16.52 0.008,6.773 2.129,12.203 6.371,16.52 v 0 c 4.281,4.316 9.394,6.433 15.59,6.445 6.191,-0.012 11.316,-2.129 15.586,-6.445 v 0 c 4.25,-4.317 6.371,-9.747 6.379,-16.52 -0.008,-6.773 -2.129,-12.203 -6.379,-16.52 -4.27,-4.316 -9.395,-6.433 -15.586,-6.445 -6.196,0.012 -11.309,2.129 -15.59,6.445 z m 38.301,-5.023 -0.715,0.695 c -5.734,-5.875 -12.746,-8.777 -21.285,-8.789 -8.543,0.012 -15.555,2.914 -21.278,8.789 l -0.027,0.031 0.027,-0.031 c -5.722,5.895 -8.546,13.004 -8.554,21.551 0.008,8.547 2.832,15.656 8.554,21.551 v 0 c 5.723,5.875 12.735,8.781 21.278,8.793 8.484,-0.012 15.48,-2.93 21.246,-8.836 5.742,-5.922 8.582,-13.02 8.594,-21.508 -0.012,-8.547 -2.844,-15.656 -8.555,-21.551 l 0.715,-0.695 0.719,-0.695 c 6.062,6.226 9.128,13.949 9.121,22.941 0.007,8.941 -3.071,16.648 -9.161,22.902 -6.093,6.278 -13.726,9.453 -22.679,9.442 -9,0.011 -16.656,-3.149 -22.711,-9.403 v 0.004 c -6.074,-6.23 -9.129,-13.953 -9.121,-22.945 -0.008,-8.992 3.047,-16.715 9.121,-22.945 l 0.027,-0.028 -0.027,0.032 c 6.055,-6.254 13.711,-9.407 22.711,-9.399 8.996,-0.008 16.652,3.145 22.719,9.399 l -0.719,0.695" /><path
         id="path44"
         style="fill:#ffffff;fill-opacity:1;fill-rule:nonzero;stroke:none"
         d="m 855.754,370 v 60 h 9.383 l 29.16,-46.676 h 0.332 l -0.332,11.563 V 430 h 7.715 v -60 h -8.047 l -30.508,48.938 h -0.332 l 0.332,-11.567 V 370 h -7.703" /><path
         id="path46"
         style="fill:#ffffff;fill-opacity:1;fill-rule:nonzero;stroke:none"
         d="m 855.754,370 h 1 v 59 h 7.828 l 29.16,-46.676 h 0.887 1.027 l -0.359,12.578 V 429 h 5.715 v -58 h -6.492 l -30.508,48.938 h -0.887 -1.027 l 0.359,-12.583 V 371 h -6.703 v -1 h 1 -1 v -1 h 7.703 1 v 38.387 l -0.332,11.578 -1,-0.027 v -1 h 0.332 v 1 L 862.609,418.406 893.41,369 h 8.602 1 v 62 h -8.715 -1 v -36.125 l 0.332,-11.578 1,0.027 v 1 h -0.332 v -1 l 0.848,0.531 L 865.691,431 h -9.937 -1 v -62 h 1 v 1" /><path
         id="path48"
         style="fill:#ffffff;fill-opacity:1;fill-rule:nonzero;stroke:none"
         d="m 1169.36,200 h 18.66 v 125.012 h -18.66 z m 168.07,79.98 -21.39,-54.199 h -0.64 l -22.2,54.199 h -20.1 l 33.29,-75.753 -18.98,-42.137 h 19.47 l 51.3,117.89 z m -105.82,-65.781 c -6.12,0 -14.64,3.055 -14.64,10.617 0,9.649 10.62,13.348 19.78,13.348 8.21,0 12.06,-1.769 17.05,-4.184 -1.45,-11.578 -11.42,-19.781 -22.19,-19.781 z m 2.25,68.516 c -13.51,0 -27.5,-5.953 -33.29,-19.141 l 16.56,-6.914 c 3.54,6.914 10.13,9.168 17.05,9.168 9.65,0 19.46,-5.793 19.62,-16.086 v -1.285 c -3.38,1.93 -10.61,4.824 -19.46,4.824 -17.85,0 -36.03,-9.808 -36.03,-28.144 0,-16.727 14.64,-27.504 31.04,-27.504 12.55,0 19.46,5.629 23.81,12.222 h 0.64 v -9.648 h 18.01 v 47.93 c 0,22.191 -16.56,34.578 -37.95,34.578 z M 1118.54,264.762 H 1092 v 42.851 h 26.54 c 13.95,0 21.87,-11.55 21.87,-21.425 0,-9.688 -7.92,-21.426 -21.87,-21.426 z m -0.48,60.25 h -44.71 V 200 H 1092 v 47.363 h 26.06 c 20.68,0 41.01,14.973 41.01,38.825 0,23.851 -20.33,38.824 -41.01,38.824 z M 874.25,214.176 c -12.891,0 -23.684,10.793 -23.684,25.617 0,14.98 10.793,25.937 23.684,25.937 12.727,0 22.715,-10.957 22.715,-25.937 0,-14.824 -9.988,-25.617 -22.715,-25.617 z m 21.426,58.804 h -0.645 c -4.187,4.993 -12.246,9.504 -22.394,9.504 -21.266,0 -40.758,-18.687 -40.758,-42.691 0,-23.844 19.492,-42.371 40.758,-42.371 10.148,0 18.207,4.512 22.394,9.664 h 0.645 v -6.121 c 0,-16.274 -8.699,-24.973 -22.715,-24.973 -11.438,0 -18.527,8.219 -21.43,15.145 l -16.269,-6.766 c 4.672,-11.277 17.078,-25.133 37.699,-25.133 21.91,0 40.437,12.891 40.437,44.305 v 76.363 H 895.676 Z M 926.285,200 h 18.688 v 125.016 h -18.688 z m 46.238,41.242 c -0.484,16.434 12.727,24.809 22.231,24.809 7.416,0 13.696,-3.703 15.786,-9.024 z m 57.997,14.176 c -3.54,9.508 -14.34,27.066 -36.411,27.066 -21.91,0 -40.113,-17.238 -40.113,-42.531 0,-23.844 18.043,-42.531 42.207,-42.531 19.497,0 30.777,11.922 35.447,18.848 l -14.5,9.668 c -4.83,-7.09 -11.44,-11.762 -20.947,-11.762 -9.504,0 -16.269,4.351 -20.621,12.887 l 56.868,23.523 z m -453.082,14.016 v -18.043 h 43.175 c -1.289,-10.149 -4.672,-17.559 -9.828,-22.715 -6.281,-6.285 -16.109,-13.211 -33.347,-13.211 -26.583,0 -47.364,21.426 -47.364,48.008 0,26.582 20.781,48.011 47.364,48.011 14.339,0 24.808,-5.64 32.542,-12.89 l 12.727,12.726 c -10.793,10.313 -25.133,18.207 -45.269,18.207 -36.411,0 -67.02,-29.644 -67.02,-66.054 0,-36.41 30.609,-66.051 67.02,-66.051 19.656,0 34.476,6.441 46.074,18.527 11.922,11.922 15.629,28.676 15.629,42.207 0,4.192 -0.321,8.055 -0.969,11.278 z m 110.789,-55.258 c -12.891,0 -24.008,10.633 -24.008,25.777 0,15.305 11.117,25.777 24.008,25.777 12.886,0 24.003,-10.472 24.003,-25.777 0,-15.144 -11.117,-25.777 -24.003,-25.777 z m 0,68.308 c -23.524,0 -42.696,-17.882 -42.696,-42.531 0,-24.488 19.172,-42.531 42.696,-42.531 23.519,0 42.691,18.043 42.691,42.531 0,24.649 -19.172,42.531 -42.691,42.531 z m 93.132,-68.308 c -12.886,0 -24.004,10.633 -24.004,25.777 0,15.305 11.118,25.777 24.004,25.777 12.887,0 24.004,-10.472 24.004,-25.777 0,-15.144 -11.117,-25.777 -24.004,-25.777 z m 0,68.308 c -23.523,0 -42.691,-17.882 -42.691,-42.531 0,-24.488 19.168,-42.531 42.691,-42.531 23.52,0 42.692,18.043 42.692,42.531 0,24.649 -19.172,42.531 -42.692,42.531" /><g
         id="g50"><g
           clip-path="url(#clipPath56)"
           id="g52"><path
             id="path72"
             style="fill:url(#linearGradient70);fill-opacity:1;fill-rule:nonzero;stroke:none"
             d="m 205.098,176.105 -0.743,0.711 c -2.91,3.079 -4.628,7.86 -4.628,14.051 v -1.457 0 221.16 c 0,0.02 0,0.035 0,0.051 0,-0.019 0,-0.035 0,-0.055 v -1.461 c 0,6.704 2.003,11.754 5.359,14.782 L 328.984,299.992 205.098,176.105 m -5.371,234.528 c 0,0.551 0.015,1.086 0.043,1.613 -0.028,-0.523 -0.043,-1.062 -0.043,-1.613 m 0.043,1.637 c 0,0.007 0,0.015 0.003,0.023 -0.003,-0.008 -0.003,-0.016 -0.003,-0.023 m 0.003,0.07 c 0,0.004 0,0.008 0,0.012 0,-0.004 0,-0.008 0,-0.012" /></g></g><g
         id="g74"><g
           clip-path="url(#clipPath80)"
           id="g76"><path
             id="path92"
             style="fill:url(#linearGradient90);fill-opacity:1;fill-rule:nonzero;stroke:none"
             d="m 370.277,257.215 v 0 l 0.942,0.535 48.929,27.801 c 4.665,2.652 7.774,5.867 9.325,9.269 -1.547,-3.402 -4.657,-6.621 -9.325,-9.273 l -48.929,-27.801 -0.942,-0.531 m 0.012,1.465 -41.305,41.312 41.301,41.305 49.863,-28.328 c 6.332,-3.598 9.887,-8.235 10.481,-12.973 0,-0.004 0,-0.012 0,-0.019 -0.594,-4.727 -4.149,-9.368 -10.481,-12.965 L 370.289,258.68" /></g></g><g
         id="g94"><g
           clip-path="url(#clipPath100)"
           id="g96"><path
             id="path108"
             style="fill:url(#linearGradient106);fill-opacity:1;fill-rule:nonzero;stroke:none"
             d="m 213.93,171.387 c -3.461,0 -6.481,1.125 -8.836,3.25 l 0.004,0.004 c 2.355,-2.125 5.379,-3.254 8.84,-3.254 0.3,0 0.605,0.008 0.914,0.023 -0.313,-0.015 -0.622,-0.023 -0.922,-0.023 m 0.004,1.465 c -3.461,-0.004 -6.481,1.125 -8.836,3.25 v 0 0.003 l 123.886,123.887 41.305,-41.312 v 0 L 225.137,176.207 c -4.016,-2.277 -7.821,-3.355 -11.203,-3.355 m -8.871,1.812 c -0.219,0.199 -0.434,0.41 -0.645,0.629 l 0.645,-0.629" /></g></g><g
         id="g110"><g
           clip-path="url(#clipPath116)"
           id="g112"><path
             id="path130"
             style="fill:url(#linearGradient128);fill-opacity:1;fill-rule:nonzero;stroke:none"
             d="m 328.984,299.992 v 0 L 205.086,423.887 c 2.355,2.121 5.371,3.246 8.828,3.246 3.391,0 7.199,-1.082 11.223,-3.363 l 145.148,-82.473 -41.301,-41.305 m 42.235,42.238 -146.082,83 c -4.024,2.282 -7.832,3.364 -11.223,3.364 -0.016,0 -0.027,0 -0.043,0 0.02,0 0.035,0 0.059,0 3.383,0 7.187,-1.078 11.207,-3.36 L 371.219,342.23 M 213.84,428.594 v 0 0" /></g></g><path
         id="path132"
         style="fill:#000000;fill-opacity:1;fill-rule:nonzero;stroke:none"
         d="m 214.852,171.41 c 3.144,0.18 6.625,1.262 10.285,3.336 l 145.14,82.469 v 0 l -145.14,-82.469 c -3.657,-2.078 -7.141,-3.156 -10.285,-3.336 m -9.758,3.227 -0.031,0.027 c 0.011,-0.008 0.023,-0.019 0.031,-0.027 v 0 m -0.676,0.656 -0.063,0.062 v 0.004 c 0.024,-0.023 0.043,-0.046 0.063,-0.066" /><g
         id="g134"><g
           clip-path="url(#clipPath140)"
           id="g136"><path
             id="path152"
             style="fill:url(#linearGradient150);fill-opacity:1;fill-rule:nonzero;stroke:none"
             d="m 370.277,257.215 v 0 l 0.942,0.535 -0.942,-0.535" /></g></g><g
         id="g154"><g
           clip-path="url(#clipPath160)"
           id="g156"><path
             id="path168"
             style="fill:url(#linearGradient166);fill-opacity:1;fill-rule:nonzero;stroke:none"
             d="m 213.938,171.387 c -3.461,0 -6.485,1.129 -8.84,3.254 l -0.004,-0.004 c -0.008,0.008 -0.02,0.019 -0.031,0.027 l -0.645,0.629 c -0.02,0.02 -0.039,0.043 -0.063,0.066 l 0.743,0.743 c 2.355,-2.125 5.375,-3.254 8.836,-3.25 3.382,0 7.187,1.078 11.203,3.355 l 145.152,82.473 0.93,-0.93 -0.942,-0.535 -145.14,-82.469 c -3.66,-2.074 -7.141,-3.156 -10.285,-3.336 -0.309,-0.015 -0.614,-0.023 -0.914,-0.023" /></g></g><path
         id="path170"
         style="fill:#000000;fill-opacity:1;fill-rule:nonzero;stroke:none"
         d="m 204.355,175.355 c -2.91,3.079 -4.628,7.86 -4.628,14.051 v 0.004 c 0,-6.195 1.718,-10.972 4.628,-14.051 v 0 0 -0.004" /><g
         id="g172"><g
           clip-path="url(#clipPath178)"
           id="g174"><path
             id="path194"
             style="fill:url(#linearGradient192);fill-opacity:1;fill-rule:nonzero;stroke:none"
             d="m 204.355,175.359 v 0 c -2.91,3.079 -4.628,7.856 -4.628,14.051 v 1.457 c 0,-6.191 1.718,-10.972 4.628,-14.051 l 0.743,-0.711 -0.743,-0.746" /></g></g><g
         id="g196"><g
           clip-path="url(#clipPath202)"
           id="g198"><path
             id="path210"
             style="fill:url(#linearGradient208);fill-opacity:1;fill-rule:nonzero;stroke:none"
             d="m 204.355,175.359 v 0 0 l 0.743,0.746 v -0.003 l -0.743,-0.743" /></g></g><path
         id="path212"
         style="fill:#000000;fill-opacity:1;fill-rule:nonzero;stroke:none"
         d="m 429.473,294.82 c 0.769,1.688 1.156,3.422 1.156,5.157 0,0.003 0,0.007 0,0.007 0,-1.738 -0.387,-3.472 -1.156,-5.164" /><g
         id="g214"><g
           clip-path="url(#clipPath220)"
           id="g216"><path
             id="path232"
             style="fill:url(#linearGradient230);fill-opacity:1;fill-rule:nonzero;stroke:none"
             d="m 371.219,257.75 v 0 l -0.93,0.93 49.859,28.332 c 6.332,3.597 9.887,8.238 10.481,12.965 0,-1.735 -0.387,-3.469 -1.156,-5.157 -1.551,-3.402 -4.66,-6.617 -9.325,-9.269 L 371.219,257.75" /></g></g><path
         id="path234"
         style="fill:#404040;fill-opacity:1;fill-rule:nonzero;stroke:none"
         d="m 430.629,299.992 v 0.004 c -0.004,5.231 -3.5,10.461 -10.481,14.43 l -48.929,27.801 h -0.004 l 0.004,0.003 48.929,-27.8 c 6.989,-3.969 10.489,-9.207 10.481,-14.438" /><g
         id="g236"><g
           clip-path="url(#clipPath242)"
           id="g238"><path
             id="path254"
             style="fill:url(#linearGradient252);fill-opacity:1;fill-rule:nonzero;stroke:none"
             d="m 430.629,299.996 c -0.594,4.738 -4.149,9.375 -10.481,12.973 l -49.863,28.328 0.93,0.93 h 0.004 l 48.929,-27.801 c 6.981,-3.969 10.477,-9.199 10.481,-14.43" /></g></g><path
         id="path256"
         style="fill:#404040;fill-opacity:1;fill-rule:nonzero;stroke:none"
         d="m 199.727,410.621 c 0,0.004 0,0.008 0,0.012 0,-0.004 0,-0.008 0,-0.012 m 0.043,1.625 c 0,0.008 0,0.016 0,0.024 0,-0.008 0,-0.016 0,-0.024 m 0.003,0.047 c 0,0.016 0,0.031 0,0.047 0,-0.016 0,-0.031 0,-0.047 m 0,0.059 c 0.579,10.273 6.165,16.207 14.067,16.242 -3.426,-0.02 -6.41,-1.145 -8.746,-3.25 v 0.004 l -0.028,-0.028 c -0.246,-0.222 -0.48,-0.457 -0.711,-0.699 v 0 c -2.625,-2.777 -4.281,-6.937 -4.582,-12.269" /><g
         id="g258"><g
           clip-path="url(#clipPath264)"
           id="g260"><path
             id="path280"
             style="fill:url(#linearGradient278);fill-opacity:1;fill-rule:nonzero;stroke:none"
             d="m 199.727,409.105 v 1.461 c 0,0.02 0,0.036 0,0.055 0,0.004 0,0.008 0,0.012 0,0.551 0.015,1.09 0.043,1.613 0,0.008 0,0.016 0,0.024 0,0.007 0,0.015 0.003,0.023 0,0.016 0,0.031 0,0.047 0,0.004 0,0.008 0,0.012 0.301,5.332 1.957,9.492 4.582,12.269 v 0 0 l 0.731,-0.734 c -3.356,-3.028 -5.359,-8.078 -5.359,-14.782 m 5.339,16.215 0.028,0.028 c -0.008,-0.012 -0.02,-0.02 -0.028,-0.028" /></g></g><path
         id="path282"
         style="fill:#404040;fill-opacity:1;fill-rule:nonzero;stroke:none"
         d="m 213.84,428.594 c 0.008,0 0.019,0 0.031,0 -0.012,0 -0.023,0 -0.031,0" /><g
         id="g284"><g
           clip-path="url(#clipPath290)"
           id="g286"><path
             id="path304"
             style="fill:url(#linearGradient302);fill-opacity:1;fill-rule:nonzero;stroke:none"
             d="M 370.285,341.297 225.137,423.77 c -4.024,2.281 -7.832,3.363 -11.223,3.363 -3.457,0 -6.473,-1.125 -8.828,-3.246 l -0.731,0.734 v 0 c 0.231,0.242 0.465,0.477 0.711,0.699 0.008,0.008 0.02,0.016 0.028,0.024 2.336,2.105 5.32,3.23 8.746,3.25 v 0 c 0.008,0 0.019,0 0.031,0 0.016,0 0.027,0 0.043,0 3.391,0 7.199,-1.082 11.223,-3.364 l 146.082,-83 -0.004,-0.003 -0.93,-0.93" /></g></g></g></g></svg>