<svg width="180" height="54" viewBox="0 0 180 54" fill="none" xmlns="http://www.w3.org/2000/svg">
<g clip-path="url(#clip0)">
<rect width="180" height="54" fill="white"/>
<path d="M173.333 54H6.66667C3 54 0 50.9625 0 47.25V6.75C0 3.0375 3 6.75519e-07 6.66667 6.75519e-07H173.333C177 6.75519e-07 180 3.0375 180 6.75V47.25C180 50.9625 177 54 173.333 54Z" fill="black"/>
<path d="M173.333 6.75519e-07H6.66667C3 6.75519e-07 0 3.0375 0 6.75V47.25C0 50.9625 3 54 6.66667 54H173.333C177 54 180 50.9625 180 47.25V6.75C180 3.0375 177 6.75519e-07 173.333 6.75519e-07ZM173.333 1.08C176.421 1.08 178.933 3.62394 178.933 6.75V47.25C178.933 50.3766 176.421 52.9205 173.333 52.9205H6.66667C3.5792 52.9205 1.06667 50.3766 1.06667 47.25V6.75C1.06667 3.62394 3.5792 1.08 6.66667 1.08H173.333Z" fill="#A6A6A6"/>
<path d="M63.2246 13.8286C63.2246 14.9596 62.8938 15.8604 62.2312 16.5323C61.4787 17.3312 60.4979 17.7309 59.2922 17.7309C58.1375 17.7309 57.1558 17.3259 56.3484 16.5148C55.5396 15.7043 55.136 14.6992 55.136 13.5C55.136 12.3003 55.5396 11.2957 56.3484 10.4847C57.1558 9.67413 58.1375 9.26859 59.2922 9.26859C59.8651 9.26859 60.4136 9.38199 60.9344 9.60825C61.4552 9.83505 61.873 10.1361 62.1855 10.5132L61.4823 11.2255C60.9527 10.5848 60.2235 10.2648 59.2922 10.2648C58.45 10.2648 57.7219 10.5643 57.1074 11.1639C56.4927 11.7641 56.1855 12.5423 56.1855 13.5C56.1855 14.4577 56.4927 15.236 57.1074 15.8362C57.7219 16.4357 58.45 16.7353 59.2922 16.7353C60.1855 16.7353 60.9303 16.4341 61.5266 15.8309C61.9136 15.438 62.1375 14.8917 62.1974 14.1903H59.2922V13.2173H63.1688C63.2063 13.4289 63.2246 13.6319 63.2246 13.8286" fill="white"/>
<path d="M63.2246 13.8286H63.0912C63.0902 14.9339 62.7713 15.7923 62.1369 16.4368L62.1355 16.4379L62.135 16.439C61.4063 17.2104 60.4697 17.5943 59.2921 17.5959C58.1683 17.5943 57.2276 17.2062 56.4421 16.4194C55.6584 15.631 55.2708 14.6686 55.2694 13.5C55.2708 12.3309 55.6584 11.3691 56.4421 10.5812C57.2276 9.79388 58.1683 9.40522 59.2921 9.4036C59.8479 9.4036 60.3771 9.51335 60.8817 9.73218C61.3869 9.95264 61.786 10.2415 62.0834 10.6002L62.1855 10.5132L62.0912 10.4177L61.388 11.1307L61.4823 11.2256L61.585 11.1392C61.0307 10.4667 60.2527 10.1277 59.2921 10.1298C58.4188 10.1287 57.6505 10.4446 57.0151 11.0669C56.3735 11.6913 56.0511 12.5133 56.0522 13.5C56.0511 14.4867 56.3735 15.3088 57.0151 15.9331C57.6505 16.5555 58.4188 16.8714 59.2921 16.8703C60.2151 16.8719 61.0016 16.5549 61.6208 15.9264C62.0344 15.5065 62.2688 14.925 62.3303 14.2019L62.3427 14.0553H59.4255V13.3523H63.1688V13.2173L63.0375 13.2411C63.074 13.4458 63.0912 13.6403 63.0912 13.8286H63.2246H63.3579C63.3579 13.6234 63.3391 13.4126 63.3 13.1932L63.2803 13.0823H59.1588V14.1903V14.3253H62.1973V14.1903L62.0646 14.1787C62.0058 14.858 61.7922 15.3695 61.4323 15.7355C60.8594 16.3134 60.1563 16.5987 59.2921 16.6003C58.4812 16.5992 57.7932 16.3165 57.2 15.7391C56.6126 15.1638 56.3203 14.4292 56.3188 13.5C56.3203 12.5708 56.6126 11.8363 57.2 11.2609C57.7932 10.6835 58.4812 10.4008 59.2921 10.3998C60.1937 10.4019 60.8745 10.7035 61.3803 11.3126L61.474 11.4255L62.2798 10.6086L62.3661 10.5211L62.2875 10.4266C61.9599 10.0312 61.5235 9.71733 60.9869 9.48432C60.4495 9.25064 59.8823 9.1336 59.2921 9.1336C58.1068 9.13252 57.0839 9.55439 56.2542 10.3892C55.4214 11.2224 55.0016 12.2698 55.0027 13.5C55.0016 14.7297 55.4213 15.7776 56.2547 16.6114C57.0839 17.4457 58.1068 17.867 59.2921 17.8659C60.5265 17.867 61.5505 17.4519 62.3276 16.6256L62.2312 16.5323L62.3255 16.6277C63.0161 15.929 63.3588 14.985 63.3579 13.8286H63.2246Z" fill="white"/>
<path d="M69.3703 10.4451H65.7271V13.0133H69.0125V13.9867H65.7271V16.5549H69.3703V17.55H64.7V9.45002H69.3703V10.4451Z" fill="white"/>
<path d="M69.3703 10.4451V10.3101H65.5938V13.1483H68.8792V13.8513L65.5938 13.8517V16.6899H69.237V17.415H64.8334V9.585H69.237V10.4451H69.3703V10.3101V10.4451H69.5036V9.45V9.315H64.5667V17.685H69.5036V16.5549V16.4199H65.8604V14.1217H69.1459V13.0133V12.8783H65.8604V10.5801H69.5036V10.4451H69.3703" fill="white"/>
<path d="M73.7052 17.55H72.6765V10.4451H70.4421V9.45002H75.9396V10.4451H73.7052V17.55Z" fill="white"/>
<path d="M73.7052 17.55V17.415H72.8099V10.3101H70.5755V9.585H75.8063V10.3101H73.5719V17.55H73.7052V17.415V17.55H73.8386V10.5801H76.073V9.45V9.315H70.3088V10.4451V10.5801H72.5432V17.685H73.7052H73.8386V17.55H73.7052" fill="white"/>
<path d="M79.9172 17.55V9.45002H80.9448V17.55H79.9172Z" fill="white"/>
<path d="M79.9172 17.55H80.0505V9.585H80.8115V17.415H79.9172V17.55H80.0505H79.9172V17.685H80.9448H81.0781V9.315H79.9172H79.7839V17.685H79.9172V17.55Z" fill="white"/>
<path d="M85.5047 17.55H84.476V10.4451H82.2418V9.45002H87.7391V10.4451H85.5047V17.55Z" fill="white"/>
<path d="M85.5047 17.55V17.415H84.6093V10.3101H82.3751V9.585H87.6057V10.3101H85.3713V17.55H85.5047V17.415V17.55H85.638V10.5801H87.8724V9.45V9.315H82.1084V10.4451V10.5801H84.3427V17.685H85.5047H85.638V17.55H85.5047" fill="white"/>
<path d="M93.0391 15.8251C93.6312 16.4321 94.3558 16.7353 95.2126 16.7353C96.0694 16.7353 96.7943 16.4321 97.3855 15.8251C97.9782 15.2182 98.2751 14.4423 98.2751 13.5C98.2751 12.5577 97.9782 11.7819 97.3855 11.1749C96.7943 10.568 96.0694 10.2648 95.2126 10.2648C94.3558 10.2648 93.6312 10.568 93.0391 11.1749C92.4479 11.7819 92.1511 12.5577 92.1511 13.5C92.1511 14.4423 92.4479 15.2182 93.0391 15.8251ZM98.1459 16.5032C97.3594 17.3221 96.3812 17.7309 95.2126 17.7309C94.0427 17.7309 93.0651 17.3221 92.2803 16.5032C91.4932 15.6853 91.1016 14.684 91.1016 13.5C91.1016 12.3161 91.4932 11.3146 92.2803 10.4968C93.0651 9.67777 94.0427 9.26859 95.2126 9.26859C96.3751 9.26859 97.3506 9.67993 98.1407 10.5021C98.9298 11.3242 99.3246 12.3235 99.3246 13.5C99.3246 14.684 98.9307 15.6853 98.1459 16.5032Z" fill="white"/>
<path d="M93.0391 15.8251L92.9443 15.92C93.5584 16.5513 94.3245 16.8719 95.2125 16.8703C96.1 16.8719 96.8672 16.5513 97.4803 15.92C98.0984 15.2882 98.4093 14.4708 98.4084 13.5C98.4093 12.5292 98.0984 11.7118 97.4803 11.08C96.8672 10.4488 96.1 10.1281 95.2125 10.1298C94.3245 10.1281 93.5584 10.4488 92.9443 11.08C92.3276 11.7118 92.0161 12.5292 92.0177 13.5C92.0161 14.4708 92.3276 15.2882 92.9443 15.92L93.0391 15.8251L93.1339 15.7302C92.5683 15.1474 92.2855 14.4144 92.2844 13.5C92.2855 12.5857 92.5683 11.8526 93.1339 11.2698C93.7047 10.6872 94.3864 10.4014 95.2125 10.3998C96.038 10.4014 96.7213 10.6872 97.2907 11.2698C97.8573 11.8526 98.1401 12.5857 98.1412 13.5C98.1401 14.4144 97.8573 15.1474 97.2907 15.7302C96.7213 16.3129 96.038 16.5987 95.2125 16.6003C94.3864 16.5987 93.7047 16.3129 93.1339 15.7302L93.0391 15.8251ZM98.1459 16.5032L98.0505 16.4094C97.286 17.2025 96.3511 17.5943 95.2125 17.5959C94.0735 17.5943 93.1385 17.2025 92.3755 16.4094L92.3719 16.4052L92.3755 16.4094C91.6125 15.6136 91.236 14.6539 91.2349 13.5C91.236 12.3462 91.6125 11.3865 92.3755 10.5907C93.1385 9.79753 94.0735 9.40522 95.2125 9.4036C96.3437 9.40522 97.2765 9.79915 98.0453 10.5965C98.8109 11.3959 99.1896 12.3542 99.1912 13.5C99.1896 14.6539 98.812 15.6136 98.0505 16.4094L98.1459 16.5032L98.2417 16.5971C99.05 15.7566 99.4588 14.714 99.4579 13.5C99.4588 12.293 99.0484 11.2526 98.2364 10.4083C97.424 9.56073 96.4063 9.13211 95.2125 9.1336C94.0125 9.13211 92.9917 9.55871 92.1844 10.403V10.4025C91.3745 11.2435 90.9672 12.2861 90.9683 13.5C90.9672 14.714 91.3745 15.7566 92.1844 16.5976L92.188 16.6014L92.1844 16.5971C92.9917 17.4414 94.0125 17.867 95.2125 17.8659C96.412 17.867 97.4328 17.4414 98.2417 16.5971L98.1459 16.5032" fill="white"/>
<path d="M100.767 17.55V9.45002H102.018L105.906 15.7513H105.951L105.906 14.1903V9.45002H106.935V17.55H105.862L101.794 10.9434H101.75L101.794 12.5049V17.55H100.767Z" fill="white"/>
<path d="M100.767 17.55H100.901V9.585H101.944L105.832 15.8863H105.951H106.088L106.04 14.1882V9.585H106.802V17.415H105.936L101.868 10.8084H101.75H101.613L101.661 12.5071V17.415H100.767V17.55H100.901H100.767V17.685H101.794H101.928V12.5028L101.883 10.9397L101.75 10.9434V11.0784H101.794V10.9434L101.681 11.0152L105.788 17.685H106.935H107.068V9.315H105.906H105.773V14.1919L105.817 15.7549L105.951 15.7513V15.6163H105.906V15.7513L106.019 15.6796L102.092 9.315H100.767H100.634V17.685H100.767V17.55Z" fill="white"/>
<path d="M142.581 40.5H145.069V23.6234H142.581V40.5ZM164.991 29.7027L162.139 37.0196H162.053L159.093 29.7027H156.413L160.852 39.9294L158.321 45.6178H160.917L167.757 29.7027H164.991ZM150.881 38.5831C150.065 38.5831 148.929 38.1707 148.929 37.1498C148.929 35.8472 150.345 35.3479 151.567 35.3479C152.661 35.3479 153.175 35.5867 153.84 35.9127C153.647 37.4757 152.317 38.5831 150.881 38.5831V38.5831ZM151.181 29.3335C149.38 29.3335 147.515 30.1371 146.743 31.9175L148.951 32.8509C149.423 31.9175 150.301 31.6132 151.224 31.6132C152.511 31.6132 153.819 32.3953 153.84 33.7848V33.9583C153.389 33.6978 152.425 33.3071 151.245 33.3071C148.865 33.3071 146.441 34.6311 146.441 37.1065C146.441 39.3646 148.393 40.8195 150.58 40.8195C152.253 40.8195 153.175 40.0596 153.755 39.1696H153.84V40.4721H156.241V34.0015C156.241 31.0057 154.033 29.3335 151.181 29.3335V29.3335ZM135.805 31.7571H132.267V25.9722H135.805C137.665 25.9722 138.721 27.5315 138.721 28.8646C138.721 30.1725 137.665 31.7571 135.805 31.7571ZM135.741 23.6234H129.78V40.5H132.267V34.106H135.741C138.499 34.106 141.209 32.0846 141.209 28.8646C141.209 25.6447 138.499 23.6234 135.741 23.6234ZM103.233 38.5862C101.515 38.5862 100.075 37.1292 100.075 35.1279C100.075 33.1056 101.515 31.6264 103.233 31.6264C104.93 31.6264 106.262 33.1056 106.262 35.1279C106.262 37.1292 104.93 38.5862 103.233 38.5862V38.5862ZM106.09 30.6477H106.004C105.446 29.9736 104.371 29.3647 103.018 29.3647C100.183 29.3647 97.5839 31.8874 97.5839 35.1279C97.5839 38.3469 100.183 40.848 103.018 40.848C104.371 40.848 105.446 40.2389 106.004 39.5434H106.09V40.3697C106.09 42.5667 104.93 43.7411 103.061 43.7411C101.536 43.7411 100.591 42.6315 100.204 41.6965L98.0349 42.6099C98.6579 44.1323 100.312 46.0029 103.061 46.0029C105.983 46.0029 108.453 44.2626 108.453 40.0217V29.7127H106.09V30.6477ZM110.171 40.5H112.663V23.6228H110.171V40.5ZM116.336 34.9323C116.272 32.7137 118.033 31.5831 119.301 31.5831C120.289 31.5831 121.127 32.083 121.405 32.8014L116.336 34.9323ZM124.069 33.0186C123.597 31.735 122.157 29.3647 119.215 29.3647C116.293 29.3647 113.866 31.6918 113.866 35.1063C113.866 38.3253 116.272 40.848 119.494 40.848C122.093 40.848 123.597 39.2386 124.22 38.3035L122.287 36.9984C121.643 37.9555 120.761 38.5862 119.494 38.5862C118.227 38.5862 117.325 37.9989 116.744 36.8465L124.327 33.6709L124.069 33.0186ZM63.6584 31.1264V33.5622H69.4151C69.2432 34.9323 68.7921 35.9327 68.1047 36.6287C67.2672 37.4772 65.9568 38.4122 63.6584 38.4122C60.114 38.4122 57.3432 35.5197 57.3432 31.9311C57.3432 28.3426 60.114 25.4497 63.6584 25.4497C65.5703 25.4497 66.9661 26.2111 67.9973 27.1898L69.6943 25.4718C68.2552 24.0795 66.3432 23.0139 63.6584 23.0139C58.8036 23.0139 54.7224 27.0158 54.7224 31.9311C54.7224 36.8465 58.8036 40.848 63.6584 40.848C66.2792 40.848 68.2552 39.9785 69.8016 38.3469C71.3912 36.7374 71.8855 34.4756 71.8855 32.6489C71.8855 32.083 71.8427 31.5615 71.7563 31.1264H63.6584ZM78.4303 38.5862C76.7115 38.5862 75.2292 37.1508 75.2292 35.1063C75.2292 33.0402 76.7115 31.6264 78.4303 31.6264C80.1484 31.6264 81.6307 33.0402 81.6307 35.1063C81.6307 37.1508 80.1484 38.5862 78.4303 38.5862V38.5862ZM78.4303 29.3647C75.2937 29.3647 72.7375 31.7787 72.7375 35.1063C72.7375 38.4122 75.2937 40.848 78.4303 40.848C81.5661 40.848 84.1224 38.4122 84.1224 35.1063C84.1224 31.7787 81.5661 29.3647 78.4303 29.3647ZM90.8479 38.5862C89.1297 38.5862 87.6473 37.1508 87.6473 35.1063C87.6473 33.0402 89.1297 31.6264 90.8479 31.6264C92.5661 31.6264 94.0484 33.0402 94.0484 35.1063C94.0484 37.1508 92.5661 38.5862 90.8479 38.5862ZM90.8479 29.3647C87.7115 29.3647 85.1557 31.7787 85.1557 35.1063C85.1557 38.4122 87.7115 40.848 90.8479 40.848C93.9839 40.848 96.5401 38.4122 96.5401 35.1063C96.5401 31.7787 93.9839 29.3647 90.8479 29.3647Z" fill="white"/>
<path d="M14.0131 43.7259L13.914 43.6299C13.526 43.2142 13.2969 42.5688 13.2969 41.733V41.9297V12.0731C13.2969 12.0704 13.2969 12.0684 13.2969 12.0662C13.2969 12.0688 13.2969 12.0709 13.2969 12.0736V12.2709C13.2969 11.3658 13.564 10.6841 14.0115 10.2753L30.5312 27.0011L14.0131 43.7259ZM13.2969 12.0646C13.2969 11.9902 13.2989 11.918 13.3027 11.8468C13.2989 11.9174 13.2969 11.9902 13.2969 12.0646ZM13.3027 11.8436C13.3027 11.8426 13.3027 11.8416 13.3031 11.8405C13.3027 11.8416 13.3027 11.8426 13.3027 11.8436ZM13.3031 11.8341C13.3031 11.8336 13.3031 11.8331 13.3031 11.8325C13.3031 11.8331 13.3031 11.8336 13.3031 11.8341Z" fill="url(#paint0_linear)"/>
<path d="M36.0369 32.776L36.1625 32.7037L42.6864 28.9506C43.3084 28.5926 43.7229 28.1586 43.9297 27.6993C43.7235 28.1586 43.3088 28.5931 42.6864 28.9512L36.1625 32.7043L36.0369 32.776V32.776ZM36.0385 32.5782L30.5312 27.0011L36.038 21.4249L42.6864 25.2492C43.5307 25.7349 44.0047 26.3609 44.0839 27.0005C44.0839 27.0011 44.0839 27.0022 44.0839 27.0031C44.0047 27.6412 43.5307 28.2678 42.6864 28.7534L36.0385 32.5782" fill="url(#paint1_linear)"/>
<path d="M15.1907 44.3628C14.7292 44.3628 14.3266 44.2109 14.0126 43.924L14.0131 43.9235C14.3271 44.2103 14.7303 44.3628 15.1918 44.3628C15.2318 44.3628 15.2724 44.3617 15.3136 44.3597C15.2719 44.3617 15.2307 44.3628 15.1907 44.3628V44.3628ZM15.1912 44.165C14.7298 44.1655 14.3271 44.0131 14.0131 43.7262V43.7258L30.5312 27.0011L36.0386 32.5782L16.685 43.7121C16.1495 44.0195 15.6422 44.165 15.1912 44.165V44.165ZM14.0084 43.9204C13.9792 43.8935 13.9506 43.865 13.9224 43.8355L14.0084 43.9204Z" fill="url(#paint2_linear)"/>
<path d="M30.5312 27.0011L14.0115 10.2753C14.3255 9.98894 14.7276 9.83706 15.1885 9.83706C15.6407 9.83706 16.1484 9.98313 16.6849 10.2911L36.038 21.4249L30.5312 27.0011V27.0011ZM36.1625 21.299L16.6849 10.094C16.1484 9.7859 15.6407 9.63983 15.1885 9.63983C15.1864 9.63983 15.1849 9.63983 15.1828 9.63983C15.1855 9.63983 15.1875 9.63983 15.1907 9.63983C15.6417 9.63983 16.1489 9.78536 16.6849 10.0934L36.1625 21.299V21.299Z" fill="url(#paint3_linear)"/>
<path d="M15.3136 44.3597C15.7328 44.3354 16.1969 44.1893 16.6849 43.9093L36.0369 32.776L16.6849 43.9093C16.1973 44.1899 15.7328 44.3354 15.3136 44.3597V44.3597ZM14.0125 43.924L14.0084 43.9204C14.0099 43.9215 14.0115 43.923 14.0125 43.924ZM13.9224 43.8355L13.914 43.8271V43.8266C13.9172 43.8297 13.9197 43.8328 13.9224 43.8355Z" fill="black"/>
<path d="M36.0369 32.776L36.1625 32.7037L36.0369 32.776Z" fill="url(#paint4_linear)"/>
<path d="M15.1917 44.3628C14.7303 44.3628 14.3271 44.2103 14.0131 43.9235L14.0125 43.924C14.0115 43.9229 14.0099 43.9214 14.0084 43.9204L13.9224 43.8355C13.9197 43.8328 13.9172 43.8296 13.914 43.8265L14.0131 43.7262C14.3271 44.0131 14.7297 44.1655 15.1912 44.165C15.6421 44.165 16.1495 44.0195 16.6849 43.7121L36.0385 32.5782L36.1625 32.7038L36.0369 32.776L16.6849 43.9093C16.1969 44.1893 15.7328 44.3354 15.3136 44.3597C15.2724 44.3617 15.2317 44.3628 15.1917 44.3628" fill="url(#paint5_linear)"/>
<path d="M13.914 43.8271C13.526 43.4114 13.2969 42.766 13.2969 41.9302V41.9297C13.2969 42.766 13.526 43.4109 13.914 43.8265V43.8271" fill="black"/>
<path d="M13.914 43.8265C13.526 43.4109 13.2969 42.766 13.2969 41.9297V41.733C13.2969 42.5687 13.526 43.2142 13.914 43.6298L14.0131 43.7258L13.914 43.8265" fill="url(#paint6_linear)"/>
<path d="M13.914 43.8265L14.0131 43.7258V43.7262L13.914 43.8265" fill="url(#paint7_linear)"/>
<path d="M43.9297 27.6993C44.0323 27.4715 44.0839 27.2374 44.0839 27.0031C44.0839 27.0027 44.0839 27.0022 44.0839 27.0022C44.0839 27.2368 44.0323 27.4709 43.9297 27.6993Z" fill="black"/>
<path d="M36.1626 32.7037L36.0386 32.5782L42.6864 28.7534C43.5307 28.2678 44.0047 27.6412 44.0839 27.0031C44.0839 27.2373 44.0323 27.4714 43.9298 27.6993C43.723 28.1586 43.3084 28.5926 42.6864 28.9506L36.1626 32.7037Z" fill="url(#paint8_linear)"/>
<path d="M44.0839 27.0011V27.0006C44.0833 26.2944 43.6172 25.5883 42.6864 25.0525L36.1625 21.2994H36.162L36.1625 21.299L42.6864 25.052C43.6183 25.5878 44.0849 26.2949 44.0839 27.0011Z" fill="#404040"/>
<path d="M44.0839 27.0006C44.0047 26.3609 43.5307 25.735 42.6864 25.2492L36.038 21.4249L36.162 21.2994H36.1626L42.6864 25.0525C43.6172 25.5883 44.0834 26.2944 44.0839 27.0006Z" fill="url(#paint9_linear)"/>
<path d="M13.2969 12.0662C13.2969 12.0657 13.2969 12.0651 13.2969 12.0646C13.2969 12.0651 13.2969 12.0657 13.2969 12.0662ZM13.3027 11.8468C13.3027 11.8457 13.3027 11.8447 13.3027 11.8436C13.3027 11.8447 13.3027 11.8457 13.3027 11.8468ZM13.3031 11.8405C13.3031 11.8383 13.3031 11.8363 13.3031 11.8341C13.3031 11.8363 13.3031 11.8383 13.3031 11.8405ZM13.3031 11.8325C13.3803 10.4457 14.1251 9.64456 15.1787 9.63984C14.7219 9.64254 14.324 9.79441 14.0125 10.0786V10.078L14.0088 10.0818C13.976 10.1118 13.9448 10.1435 13.914 10.1762C13.564 10.5511 13.3432 11.1127 13.3031 11.8325Z" fill="#404040"/>
<path d="M13.2969 12.2708V12.0736C13.2969 12.0709 13.2969 12.0687 13.2969 12.0662C13.2969 12.0656 13.2969 12.0651 13.2969 12.0646C13.2969 11.9902 13.2989 11.9174 13.3027 11.8468C13.3027 11.8457 13.3027 11.8447 13.3027 11.8436C13.3027 11.8426 13.3027 11.8415 13.3031 11.8405C13.3031 11.8383 13.3031 11.8363 13.3031 11.8341C13.3031 11.8336 13.3031 11.833 13.3031 11.8325C13.3432 11.1127 13.564 10.5511 13.914 10.1762L14.0115 10.2753C13.564 10.6841 13.2969 11.3658 13.2969 12.2708V12.2708ZM14.0088 10.0818L14.0125 10.078C14.0115 10.0797 14.0099 10.0807 14.0088 10.0818Z" fill="url(#paint10_linear)"/>
<path d="M36.038 21.4249L16.6849 10.2911C16.1484 9.98314 15.6407 9.83707 15.1885 9.83707C14.7276 9.83707 14.3255 9.98894 14.0115 10.2753L13.914 10.1762C13.9448 10.1435 13.976 10.1118 14.0088 10.0818C14.0099 10.0807 14.0115 10.0797 14.0125 10.0786C14.324 9.79441 14.7219 9.64253 15.1787 9.63983C15.1797 9.63983 15.1812 9.63983 15.1828 9.63983C15.1849 9.63983 15.1864 9.63983 15.1885 9.63983C15.6407 9.63983 16.1484 9.7859 16.6849 10.094L36.1625 21.299L36.162 21.2994L36.038 21.4249Z" fill="url(#paint11_linear)"/>
</g>
<defs>
<linearGradient id="paint0_linear" x1="29.0664" y1="11.7581" x2="6.41177" y2="34.1331" gradientUnits="userSpaceOnUse">
<stop stop-color="#00A0FF"/>
<stop offset="0.00657445" stop-color="#00A1FF"/>
<stop offset="0.2601" stop-color="#00BEFF"/>
<stop offset="0.5122" stop-color="#00D2FF"/>
<stop offset="0.7604" stop-color="#00DFFF"/>
<stop offset="1" stop-color="#00E3FF"/>
</linearGradient>
<linearGradient id="paint1_linear" x1="45.1125" y1="27.0019" x2="12.8499" y2="27.0019" gradientUnits="userSpaceOnUse">
<stop stop-color="#FFE000"/>
<stop offset="0.4087" stop-color="#FFBD00"/>
<stop offset="0.7754" stop-color="#FFA500"/>
<stop offset="1" stop-color="#FF9C00"/>
</linearGradient>
<linearGradient id="paint2_linear" x1="33.1027" y1="30.0997" x2="2.38135" y2="60.4418" gradientUnits="userSpaceOnUse">
<stop stop-color="#FF3A44"/>
<stop offset="1" stop-color="#C31162"/>
</linearGradient>
<linearGradient id="paint3_linear" x1="9.72974" y1="0.237887" x2="23.4481" y2="13.7868" gradientUnits="userSpaceOnUse">
<stop stop-color="#32A071"/>
<stop offset="0.0685" stop-color="#2DA771"/>
<stop offset="0.4762" stop-color="#15CF74"/>
<stop offset="0.8009" stop-color="#06E775"/>
<stop offset="1" stop-color="#00F076"/>
</linearGradient>
<linearGradient id="paint4_linear" x1="45.1124" y1="27.0018" x2="12.8502" y2="27.0018" gradientUnits="userSpaceOnUse">
<stop stop-color="#CCB300"/>
<stop offset="0.4087" stop-color="#CC9700"/>
<stop offset="0.7754" stop-color="#CC8400"/>
<stop offset="1" stop-color="#CC7D00"/>
</linearGradient>
<linearGradient id="paint5_linear" x1="33.1027" y1="30.0997" x2="2.38133" y2="60.4418" gradientUnits="userSpaceOnUse">
<stop stop-color="#CC2E36"/>
<stop offset="1" stop-color="#9C0E4E"/>
</linearGradient>
<linearGradient id="paint6_linear" x1="29.0664" y1="11.7581" x2="6.41177" y2="34.133" gradientUnits="userSpaceOnUse">
<stop stop-color="#008DE0"/>
<stop offset="0.00657445" stop-color="#008DE0"/>
<stop offset="0.2601" stop-color="#00A7E0"/>
<stop offset="0.5122" stop-color="#00B8E0"/>
<stop offset="0.7604" stop-color="#00C4E0"/>
<stop offset="1" stop-color="#00C7E0"/>
</linearGradient>
<linearGradient id="paint7_linear" x1="33.103" y1="30.0997" x2="2.38153" y2="60.4422" gradientUnits="userSpaceOnUse">
<stop stop-color="#E0333C"/>
<stop offset="1" stop-color="#AB0F56"/>
</linearGradient>
<linearGradient id="paint8_linear" x1="45.1126" y1="27.0019" x2="12.8499" y2="27.0019" gradientUnits="userSpaceOnUse">
<stop stop-color="#E0C500"/>
<stop offset="0.4087" stop-color="#E0A600"/>
<stop offset="0.7754" stop-color="#E09100"/>
<stop offset="1" stop-color="#E08900"/>
</linearGradient>
<linearGradient id="paint9_linear" x1="45.1126" y1="27.0019" x2="12.8499" y2="27.0019" gradientUnits="userSpaceOnUse">
<stop stop-color="#FFE840"/>
<stop offset="0.4087" stop-color="#FFCE40"/>
<stop offset="0.7754" stop-color="#FFBC40"/>
<stop offset="1" stop-color="#FFB540"/>
</linearGradient>
<linearGradient id="paint10_linear" x1="29.0664" y1="11.7581" x2="6.41177" y2="34.133" gradientUnits="userSpaceOnUse">
<stop stop-color="#40B8FF"/>
<stop offset="0.00657445" stop-color="#40B9FF"/>
<stop offset="0.2601" stop-color="#40CEFF"/>
<stop offset="0.5122" stop-color="#40DDFF"/>
<stop offset="0.7604" stop-color="#40E7FF"/>
<stop offset="1" stop-color="#40EAFF"/>
</linearGradient>
<linearGradient id="paint11_linear" x1="9.72974" y1="0.23789" x2="23.4481" y2="13.7868" gradientUnits="userSpaceOnUse">
<stop stop-color="#65B895"/>
<stop offset="0.0685" stop-color="#62BD95"/>
<stop offset="0.4762" stop-color="#50DB97"/>
<stop offset="0.8009" stop-color="#44ED98"/>
<stop offset="1" stop-color="#40F498"/>
</linearGradient>
<clipPath id="clip0">
<rect width="180" height="54" fill="white"/>
</clipPath>
</defs>
</svg>
